# xmcd
# 
# Track frame offsets:
#     150
#     21174
#     36286
#     57666
#     75302
#     91992
#     108262
#     121043
#     145214
#     161341
#     172547
#     194398
# 
# Disc length: 2941
# 
# Revision: 1
# Processed by: cddbd v1.5.2PL0 Copyright (c) Steve Scherf et al.
# Submitted via: fre:ac v1.0.31
# 
DISCID=8b0b7b0c
DTITLE=Jean de la Fontaine et Pierre-Gérard Verny - Fables de La Fontaine sur des airs de jazz
DYEAR=2008
DGENRE=Jazz
TTITLE0=La Cigale et la fourmi
TTITLE1=Le Corbeau et le renard
TTITLE2=Le Lièvre et la tortue
TTITLE3=Le Rat de ville et le rat des champs
TTITLE4=Le Héron
TTITLE5=Le Renard et les raisins
TTITLE6=La Grenouille qui veut se faire aussi grosse que le boeuf
TTITLE7=La Laitière et le pot au lait
TTITLE8=Le Renard et la cigogne
TTITLE9=Le Pot de terre et le pot de fer
TTITLE10=Le Loup et l'agneau
TTITLE11=Le Lion et le rat - La Colombe et la fourmi
EXTD=Père Castor - Flammarion
EXTT0=
EXTT1=
EXTT2=
EXTT3=
EXTT4=
EXTT5=
EXTT6=
EXTT7=
EXTT8=
EXTT9=
EXTT10=
EXTT11=
PLAYORDER=
